C:\GBW_MyPrograms\KinderuniversiteitApp\Resultaten\mars_sim2\Aarde\Aarde_v1.mot
version=1
nRows=14
nColumns=29
inDegrees=yes
endheader
                time	         pelvis_tilt	           pelvis_tx	           pelvis_ty	       hip_flexion_l	       hip_flexion_r	        knee_angle_l	        knee_angle_r	       ankle_angle_l	       ankle_angle_r	    lumbar_extension	hamstrings_r/activation	bifemsh_r/activation	glut_max_r/activation	iliopsoas_r/activation	rect_fem_r/activation	  vasti_r/activation	gastroc_r/activation	 soleus_r/activation	tib_ant_r/activation	hamstrings_l/activation	bifemsh_l/activation	glut_max_l/activation	iliopsoas_l/activation	rect_fem_l/activation	  vasti_l/activation	gastroc_l/activation	 soleus_l/activation	tib_ant_l/activation	
          0.46264962	         -8.16503024	          0.61532399	          0.89554612	         31.68826791	         -8.85958791	        -12.54673063	        -11.00677503	         10.61111129	          3.84830059	          0.96531788	          0.06614045	          0.15869636	          0.08762466	          0.72653555	          0.23121904	          0.06948097	          0.22299120	          0.26603798	          0.05209228	          0.32215035	          0.12063272	          0.15759396	          0.08620995	          0.11024391	          0.08971118	          0.07776347	          0.08004700	          0.32947674	
          0.47190261	         -8.21291241	          0.63017538	          0.89456346	         31.07480623	         -8.60327505	        -12.28653632	        -13.03619920	         10.52598912	          3.06723870	          1.32466958	          0.06711247	          0.14351142	          0.09016545	          0.67899834	          0.20596490	          0.06562543	          0.19366378	          0.23311876	          0.05168472	          0.30583073	          0.14802666	          0.16233551	          0.07735652	          0.09837274	          0.11420678	          0.07702394	          0.07443013	          0.35213682	
          0.48115560	         -8.25854314	          0.64518603	          0.89349984	         30.42097753	         -8.13202031	        -12.61271484	        -15.45196950	         10.35299722	          2.15901337	          1.70380553	          0.07355767	          0.13018283	          0.09844232	          0.60419992	          0.18303851	          0.06294452	          0.16814109	          0.20255448	          0.05144088	          0.27066506	          0.16481989	          0.18375192	          0.06922219	          0.08742005	          0.15163661	          0.08756060	          0.08297527	          0.32121514	
          0.49040860	         -8.30315515	          0.66019808	          0.89249128	         29.69513528	         -7.44189280	        -13.01825781	        -18.20697640	         10.23161969	          0.99529658	          2.08377950	          0.07359658	          0.11867809	          0.10801020	          0.53509456	          0.16744817	          0.06939627	          0.14599975	          0.17576996	          0.05615754	          0.23679753	          0.17183526	          0.21612799	          0.06217032	          0.07828778	          0.20195247	          0.07841818	          0.07354616	          0.38429626	
          0.49966159	         -8.34906481	          0.67494296	          0.89176214	         28.98729277	         -6.53769595	        -13.39927847	        -21.22725397	         10.00771055	         -0.44342650	          2.43238015	          0.07351864	          0.11057184	          0.09590196	          0.46881232	          0.16014605	          0.06698767	          0.12687847	          0.15251361	          0.25498178	          0.20719601	          0.15997199	          0.25891943	          0.05610078	          0.07223493	          0.27517701	          0.07215919	          0.06892887	          0.38834815	
          0.50891458	         -8.39634069	          0.68918839	          0.89138564	         28.37316187	         -5.45868788	        -13.89237039	        -24.38220340	          9.87162710	         -1.61334466	          2.72003553	          0.07343097	          0.11104303	          0.08439320	          0.41079327	          0.23206266	          0.06030473	          0.11176532	          0.13274222	          0.23820801	          0.18139877	          0.14967215	          0.27051457	          0.05476038	          0.07128907	          0.33691235	          0.06719911	          0.06495931	          0.40550754	
          0.51816757	         -8.44481619	          0.70289016	          0.89141326	         27.81991174	         -4.29273589	        -14.42892157	        -27.36380315	          9.77737247	         -1.74452956	          2.94139605	          0.07957538	          0.12963111	          0.07428906	          0.35911726	          0.24600310	          0.05433834	          0.09983753	          0.11561690	          0.30939484	          0.16008769	          0.14493087	          0.25667265	          0.05723626	          0.07326547	          0.37689949	          0.06594634	          0.06491026	          0.40344302	
          0.52742057	         -8.49323433	          0.71613521	          0.89191566	         27.25591024	         -3.07382095	        -14.89360105	        -30.07957262	          9.71780951	         -1.50731470	          3.10665152	          0.09400320	          0.15938391	          0.06576005	          0.31383135	          0.28288741	          0.05219370	          0.09473953	          0.10106841	          0.30622301	          0.14427092	          0.14492549	          0.24123197	          0.05820290	          0.07294015	          0.38674924	          0.06663982	          0.06594355	          0.40332637	
          0.53667356	         -8.54046158	          0.72901579	          0.89286447	         26.63388653	         -1.82369029	        -15.21850074	        -32.50251517	          9.71848141	         -1.10617868	          3.22662951	          0.11733982	          0.19512350	          0.05904452	          0.27483089	          0.33418703	          0.05189466	          0.09667713	          0.08860368	          0.30240290	          0.13411396	          0.14734272	          0.22403720	          0.05764152	          0.07087971	          0.38162274	          0.06783022	          0.06759376	          0.39666075	
          0.54592655	         -8.58530056	          0.74160790	          0.89418798	         25.93389608	         -0.55760070	        -15.37920158	        -34.62958447	          9.77471970	         -0.58402278	          3.30975184	          0.13379182	          0.23192256	          0.05500611	          0.24180764	          0.36940427	          0.05186981	          0.09795912	          0.07794590	          0.29277155	          0.12683797	          0.14845386	          0.20695641	          0.05704786	          0.06914599	          0.36181069	          0.06825670	          0.06808731	          0.38330775	
          0.55517954	         -8.62673083	          0.75396653	          0.89579895	         25.15751022	          0.71773957	        -15.38609345	        -36.47493978	          9.87713625	         -0.01421193	          3.36179216	          0.14134032	          0.26912459	          0.05491623	          0.21481335	          0.39372800	          0.05203289	          0.09870849	          0.06882321	          0.28115678	          0.12065295	          0.14637227	          0.19019424	          0.05645596	          0.06851367	          0.33445836	          0.06785686	          0.06864815	          0.36953761	
          0.56443254	         -8.66318058	          0.76613114	          0.89760506	         24.31755871	          1.99961315	        -15.26844338	        -38.06592587	         10.01138576	          0.57129018	          3.38581730	          0.14091739	          0.30444737	          0.05445767	          0.19294793	          0.40824198	          0.05227848	          0.09769152	          0.06196774	          0.27082917	          0.11682110	          0.14189411	          0.17484666	          0.05623615	          0.06889756	          0.30589988	          0.06654460	          0.06886222	          0.35544977	
          0.57368553	         -8.69352591	          0.77813092	          0.89951573	         23.42894763	          3.28915571	        -15.05619648	        -39.43725817	         10.15666589	          1.15503873	          3.38400581	          0.13373384	          0.34003073	          0.05448374	          0.17611065	          0.41333934	          0.05250308	          0.09569652	          0.05724656	          0.26123346	          0.11347648	          0.13612091	          0.16272277	          0.05584708	          0.06992888	          0.27912321	          0.06486558	          0.06911849	          0.33957441	
          0.58293852	         -8.71695879	          0.78998935	          0.90145002	         22.50379839	          4.58949328	        -14.77336315	        -40.62373171	         10.29517293	          1.71710382	          3.35825360	          0.12334732	          0.37567283	          0.05454690	          0.16338337	          0.41050598	          0.05272793	          0.09178570	          0.05520525	          0.25476396	          0.11066041	          0.12993128	          0.15321535	          0.05552057	          0.07167305	          0.25521445	          0.06372164	          0.06993821	          0.32398243	
